<svg width="312" height="258" viewBox="0 0 312 258" fill="none" xmlns="http://www.w3.org/2000/svg">
<path d="M241.07 27.5693C241.07 27.5693 212.047 3.85725 174.302 14.3592C136.556 24.8611 120.744 57.4152 99.1034 79.7669C87.7653 91.4731 71.0234 95.785 57.545 104.802C14.489 133.618 20.8538 198.402 54.0631 222.838C86.1616 246.431 128.868 243.118 165.066 232.229C231.248 212.311 310.952 151.546 276.538 73.7328C268.485 55.7849 256.337 39.9743 241.07 27.5693Z" fill="#9DC1EB"/>
<path opacity="0.7" d="M241.07 27.5693C241.07 27.5693 212.047 3.85725 174.302 14.3592C136.556 24.8611 120.744 57.4152 99.1034 79.7669C87.7653 91.4731 71.0234 95.785 57.545 104.802C14.489 133.618 20.8538 198.402 54.0631 222.838C86.1616 246.431 128.868 243.118 165.066 232.229C231.248 212.311 310.952 151.546 276.538 73.7328C268.485 55.7849 256.337 39.9743 241.07 27.5693Z" fill="white"/>
<path d="M156 254.131C228.806 254.131 287.826 249.429 287.826 243.629C287.826 237.829 228.806 233.127 156 233.127C83.1945 233.127 24.1738 237.829 24.1738 243.629C24.1738 249.429 83.1945 254.131 156 254.131Z" fill="#9DC1EB"/>
<path opacity="0.5" d="M156 254.131C228.806 254.131 287.826 249.429 287.826 243.629C287.826 237.829 228.806 233.127 156 233.127C83.1945 233.127 24.1738 237.829 24.1738 243.629C24.1738 249.429 83.1945 254.131 156 254.131Z" fill="white"/>
<path d="M261.668 24.5742H125.28C122.32 24.5742 119.92 26.974 119.92 29.9344V101.027C119.92 103.987 122.32 106.387 125.28 106.387H261.668C264.628 106.387 267.028 103.987 267.028 101.027V29.9344C267.028 26.974 264.628 24.5742 261.668 24.5742Z" fill="#063D7A"/>
<path d="M266.023 27.6367H129.636C126.675 27.6367 124.275 30.0365 124.275 32.9969V104.089C124.275 107.05 126.675 109.449 129.636 109.449H266.023C268.984 109.449 271.383 107.05 271.383 104.089V32.9969C271.383 30.0365 268.984 27.6367 266.023 27.6367Z" fill="white" stroke="#063D7A" stroke-miterlimit="10"/>
<path d="M141.928 37.5905C141.928 38.5174 141.653 39.4234 141.138 40.194C140.623 40.9647 139.892 41.5653 139.035 41.92C138.179 42.2747 137.237 42.3675 136.328 42.1867C135.419 42.0059 134.584 41.5596 133.928 40.9042C133.273 40.2488 132.827 39.4138 132.646 38.5048C132.465 37.5957 132.558 36.6535 132.912 35.7972C133.267 34.9409 133.868 34.209 134.638 33.6941C135.409 33.1791 136.315 32.9043 137.242 32.9043C137.857 32.9043 138.467 33.0255 139.035 33.261C139.604 33.4965 140.12 33.8417 140.556 34.2769C140.991 34.712 141.336 35.2286 141.571 35.7972C141.807 36.3657 141.928 36.9751 141.928 37.5905Z" fill="#9DC1EB" stroke="#063D7A" stroke-miterlimit="10"/>
<path d="M134.141 34.0762L140.381 41.0587" stroke="#063D7A" stroke-miterlimit="10"/>
<path d="M140.806 34.1387L134.435 40.9964" stroke="#063D7A" stroke-miterlimit="10"/>
<path d="M153.93 39.8872V44.9972C153.93 45.2972 153.877 45.5705 153.77 45.8172C153.67 46.0639 153.523 46.2739 153.33 46.4472C153.143 46.6205 152.917 46.7539 152.65 46.8472C152.383 46.9405 152.087 46.9872 151.76 46.9872C151.147 46.9872 150.657 46.8339 150.29 46.5272C149.93 46.2205 149.697 45.7972 149.59 45.2572L150.65 45.0372C150.71 45.3239 150.823 45.5639 150.99 45.7572C151.157 45.9505 151.417 46.0472 151.77 46.0472C152.097 46.0472 152.35 45.9505 152.53 45.7572C152.717 45.5572 152.81 45.2539 152.81 44.8472V40.8272H150.38V39.8872H153.93ZM157.996 46.9872C157.556 46.9872 157.173 46.9072 156.846 46.7472C156.526 46.5805 156.259 46.3439 156.046 46.0372C155.839 45.7305 155.686 45.3539 155.586 44.9072C155.486 44.4605 155.436 43.9505 155.436 43.3772C155.436 42.8105 155.486 42.3039 155.586 41.8572C155.686 41.4039 155.839 41.0239 156.046 40.7172C156.259 40.4105 156.526 40.1772 156.846 40.0172C157.173 39.8505 157.556 39.7672 157.996 39.7672C158.436 39.7672 158.816 39.8505 159.136 40.0172C159.463 40.1772 159.729 40.4105 159.936 40.7172C160.149 41.0239 160.306 41.4039 160.406 41.8572C160.506 42.3039 160.556 42.8105 160.556 43.3772C160.556 43.9505 160.506 44.4605 160.406 44.9072C160.306 45.3539 160.149 45.7305 159.936 46.0372C159.729 46.3439 159.463 46.5805 159.136 46.7472C158.816 46.9072 158.436 46.9872 157.996 46.9872ZM157.996 46.0572C158.496 46.0572 158.849 45.8705 159.056 45.4972C159.263 45.1172 159.366 44.6039 159.366 43.9572V42.7872C159.366 42.1472 159.263 41.6405 159.056 41.2672C158.849 40.8872 158.496 40.6972 157.996 40.6972C157.496 40.6972 157.143 40.8872 156.936 41.2672C156.729 41.6405 156.626 42.1472 156.626 42.7872V43.9672C156.626 44.6072 156.729 45.1172 156.936 45.4972C157.143 45.8705 157.496 46.0572 157.996 46.0572ZM161.822 39.8872H164.232C164.866 39.8872 165.356 40.0505 165.702 40.3772C166.056 40.7039 166.232 41.1505 166.232 41.7172C166.232 42.1239 166.132 42.4472 165.932 42.6872C165.732 42.9272 165.462 43.0972 165.122 43.1972V43.2472C165.529 43.3405 165.856 43.5205 166.102 43.7872C166.349 44.0472 166.472 44.4172 166.472 44.8972C166.472 45.1839 166.426 45.4472 166.332 45.6872C166.239 45.9272 166.106 46.1372 165.932 46.3172C165.759 46.4905 165.549 46.6272 165.302 46.7272C165.062 46.8205 164.796 46.8672 164.502 46.8672H161.822V39.8872ZM164.162 46.0072C164.536 46.0072 164.822 45.9305 165.022 45.7772C165.222 45.6239 165.322 45.3772 165.322 45.0372V44.6772C165.322 44.3372 165.222 44.0905 165.022 43.9372C164.822 43.7839 164.536 43.7072 164.162 43.7072H162.922V46.0072H164.162ZM164.002 42.8872C164.356 42.8872 164.622 42.8205 164.802 42.6872C164.989 42.5472 165.082 42.3172 165.082 41.9972V41.6372C165.082 41.3172 164.989 41.0905 164.802 40.9572C164.622 40.8172 164.356 40.7472 164.002 40.7472H162.922V42.8872H164.002ZM174.644 40.8272V46.8672H173.524V40.8272H171.334V39.8872H176.834V40.8272H174.644ZM177.88 46.8672V46.0172H179.52V40.7372H177.88V39.8872H182.28V40.7372H180.64V46.0172H182.28V46.8672H177.88ZM186.637 40.8272V46.8672H185.517V40.8272H183.327V39.8872H188.827V40.8272H186.637ZM192.633 40.8272V46.8672H191.513V40.8272H189.323V39.8872H194.823V40.8272H192.633ZM196.149 46.8672V39.8872H197.269V45.9272H200.449V46.8672H196.149ZM201.925 46.8672V39.8872H206.295V40.8272H203.045V42.8572H206.175V43.7972H203.045V45.9272H206.295V46.8672H201.925Z" fill="#18191C"/>
<rect x="193" y="82.3672" width="70" height="19" rx="9.5" fill="#0A65CC"/>
<path d="M205.8 95.3672V88.3872H208.45C209.13 88.3872 209.65 88.5805 210.01 88.9672C210.37 89.3539 210.55 89.8805 210.55 90.5472C210.55 91.2139 210.37 91.7405 210.01 92.1272C209.65 92.5139 209.13 92.7072 208.45 92.7072H207.11V95.3672H205.8ZM207.11 91.6372H208.18C208.533 91.6372 208.787 91.5672 208.94 91.4272C209.093 91.2805 209.17 91.0505 209.17 90.7372V90.3572C209.17 90.0439 209.093 89.8172 208.94 89.6772C208.787 89.5305 208.533 89.4572 208.18 89.4572H207.11V91.6372ZM213.996 95.4872C213.543 95.4872 213.149 95.4072 212.816 95.2472C212.483 95.0805 212.206 94.8439 211.986 94.5372C211.773 94.2305 211.613 93.8539 211.506 93.4072C211.406 92.9605 211.356 92.4505 211.356 91.8772C211.356 91.3105 211.406 90.8039 211.506 90.3572C211.613 89.9039 211.773 89.5239 211.986 89.2172C212.206 88.9105 212.483 88.6772 212.816 88.5172C213.149 88.3505 213.543 88.2672 213.996 88.2672C214.903 88.2672 215.569 88.5839 215.996 89.2172C216.423 89.8505 216.636 90.7372 216.636 91.8772C216.636 93.0172 216.423 93.9039 215.996 94.5372C215.569 95.1705 214.903 95.4872 213.996 95.4872ZM213.996 94.4172C214.229 94.4172 214.426 94.3739 214.586 94.2872C214.746 94.1939 214.873 94.0639 214.966 93.8972C215.066 93.7305 215.136 93.5272 215.176 93.2872C215.223 93.0405 215.246 92.7672 215.246 92.4672V91.2772C215.246 90.6772 215.153 90.2039 214.966 89.8572C214.786 89.5105 214.463 89.3372 213.996 89.3372C213.529 89.3372 213.203 89.5105 213.016 89.8572C212.836 90.2039 212.746 90.6772 212.746 91.2772V92.4772C212.746 93.0772 212.836 93.5505 213.016 93.8972C213.203 94.2439 213.529 94.4172 213.996 94.4172ZM219.912 95.4872C219.312 95.4872 218.799 95.3839 218.372 95.1772C217.952 94.9705 217.609 94.6972 217.342 94.3572L218.132 93.5372C218.392 93.8372 218.672 94.0605 218.972 94.2072C219.279 94.3472 219.606 94.4172 219.952 94.4172C220.352 94.4172 220.659 94.3272 220.872 94.1472C221.086 93.9672 221.192 93.7072 221.192 93.3672C221.192 93.0872 221.112 92.8772 220.952 92.7372C220.792 92.5905 220.522 92.4872 220.142 92.4272L219.402 92.3072C218.756 92.1939 218.296 91.9605 218.022 91.6072C217.749 91.2472 217.612 90.8239 217.612 90.3372C217.612 89.6705 217.829 89.1605 218.262 88.8072C218.696 88.4472 219.296 88.2672 220.062 88.2672C220.609 88.2672 221.079 88.3539 221.472 88.5272C221.872 88.7005 222.192 88.9372 222.432 89.2372L221.662 90.0572C221.476 89.8372 221.252 89.6639 220.992 89.5372C220.732 89.4039 220.426 89.3372 220.072 89.3372C219.312 89.3372 218.932 89.6505 218.932 90.2772C218.932 90.5439 219.012 90.7472 219.172 90.8872C219.332 91.0272 219.606 91.1305 219.992 91.1972L220.722 91.3272C221.329 91.4405 221.779 91.6639 222.072 91.9972C222.366 92.3305 222.512 92.7572 222.512 93.2772C222.512 93.6039 222.456 93.9039 222.342 94.1772C222.229 94.4439 222.062 94.6772 221.842 94.8772C221.622 95.0705 221.349 95.2205 221.022 95.3272C220.702 95.4339 220.332 95.4872 219.912 95.4872ZM226.638 89.4672V95.3672H225.338V89.4672H223.238V88.3872H228.738V89.4672H226.638ZM238 88.3872V93.4572C238 93.7705 237.947 94.0539 237.84 94.3072C237.734 94.5539 237.58 94.7639 237.38 94.9372C237.187 95.1105 236.95 95.2472 236.67 95.3472C236.397 95.4405 236.09 95.4872 235.75 95.4872C235.09 95.4872 234.57 95.3205 234.19 94.9872C233.817 94.6539 233.577 94.2105 233.47 93.6572L234.7 93.3972C234.76 93.6905 234.867 93.9339 235.02 94.1272C235.18 94.3139 235.424 94.4072 235.75 94.4072C236.05 94.4072 236.28 94.3205 236.44 94.1472C236.6 93.9672 236.68 93.6872 236.68 93.3072V89.4672H234.32V88.3872H238ZM241.977 95.4872C241.523 95.4872 241.13 95.4072 240.797 95.2472C240.463 95.0805 240.187 94.8439 239.967 94.5372C239.753 94.2305 239.593 93.8539 239.487 93.4072C239.387 92.9605 239.337 92.4505 239.337 91.8772C239.337 91.3105 239.387 90.8039 239.487 90.3572C239.593 89.9039 239.753 89.5239 239.967 89.2172C240.187 88.9105 240.463 88.6772 240.797 88.5172C241.13 88.3505 241.523 88.2672 241.977 88.2672C242.883 88.2672 243.55 88.5839 243.977 89.2172C244.403 89.8505 244.617 90.7372 244.617 91.8772C244.617 93.0172 244.403 93.9039 243.977 94.5372C243.55 95.1705 242.883 95.4872 241.977 95.4872ZM241.977 94.4172C242.21 94.4172 242.407 94.3739 242.567 94.2872C242.727 94.1939 242.853 94.0639 242.947 93.8972C243.047 93.7305 243.117 93.5272 243.157 93.2872C243.203 93.0405 243.227 92.7672 243.227 92.4672V91.2772C243.227 90.6772 243.133 90.2039 242.947 89.8572C242.767 89.5105 242.443 89.3372 241.977 89.3372C241.51 89.3372 241.183 89.5105 240.997 89.8572C240.817 90.2039 240.727 90.6772 240.727 91.2772V92.4772C240.727 93.0772 240.817 93.5505 240.997 93.8972C241.183 94.2439 241.51 94.4172 241.977 94.4172ZM245.773 88.3872H248.203C248.863 88.3872 249.369 88.5539 249.723 88.8872C250.083 89.2139 250.263 89.6605 250.263 90.2272C250.263 90.6272 250.163 90.9472 249.963 91.1872C249.769 91.4272 249.493 91.6005 249.133 91.7072V91.7572C249.553 91.8572 249.883 92.0405 250.123 92.3072C250.369 92.5672 250.493 92.9372 250.493 93.4172C250.493 93.7105 250.443 93.9772 250.343 94.2172C250.249 94.4505 250.113 94.6539 249.933 94.8272C249.759 95.0005 249.546 95.1339 249.293 95.2272C249.046 95.3205 248.766 95.3672 248.453 95.3672H245.773V88.3872ZM248.053 94.4172C248.419 94.4172 248.693 94.3505 248.873 94.2172C249.059 94.0772 249.153 93.8405 249.153 93.5072V93.1772C249.153 92.8505 249.059 92.6205 248.873 92.4872C248.693 92.3472 248.419 92.2772 248.053 92.2772H247.053V94.4172H248.053ZM247.883 91.3672C248.236 91.3672 248.496 91.3039 248.663 91.1772C248.836 91.0505 248.923 90.8305 248.923 90.5172V90.1872C248.923 89.8739 248.836 89.6539 248.663 89.5272C248.496 89.4005 248.236 89.3372 247.883 89.3372H247.053V91.3672H247.883Z" fill="white"/>
<path d="M153.81 63.8672L153.22 61.8772H150.77L150.18 63.8672H149.31L151.45 56.8872H152.56L154.7 63.8672H153.81ZM152.04 57.7772H151.95L150.97 61.1472H153.02L152.04 57.7772ZM159.246 63.0272H159.206C158.873 63.6672 158.343 63.9872 157.616 63.9872C156.983 63.9872 156.486 63.7505 156.126 63.2772C155.773 62.8039 155.596 62.1405 155.596 61.2872C155.596 60.4339 155.773 59.7705 156.126 59.2972C156.486 58.8239 156.983 58.5872 157.616 58.5872C158.343 58.5872 158.873 58.9072 159.206 59.5472H159.246V56.4672H160.046V63.8672H159.246V63.0272ZM157.926 63.2772C158.106 63.2772 158.276 63.2539 158.436 63.2072C158.596 63.1605 158.736 63.0939 158.856 63.0072C158.976 62.9139 159.069 62.8039 159.136 62.6772C159.209 62.5439 159.246 62.3905 159.246 62.2172V60.3572C159.246 60.1839 159.209 60.0339 159.136 59.9072C159.069 59.7739 158.976 59.6639 158.856 59.5772C158.736 59.4839 158.596 59.4139 158.436 59.3672C158.276 59.3205 158.106 59.2972 157.926 59.2972C157.459 59.2972 157.096 59.4405 156.836 59.7272C156.583 60.0072 156.456 60.3805 156.456 60.8472V61.7272C156.456 62.1939 156.583 62.5705 156.836 62.8572C157.096 63.1372 157.459 63.2772 157.926 63.2772ZM165.242 63.0272H165.202C164.869 63.6672 164.339 63.9872 163.612 63.9872C162.979 63.9872 162.482 63.7505 162.122 63.2772C161.769 62.8039 161.592 62.1405 161.592 61.2872C161.592 60.4339 161.769 59.7705 162.122 59.2972C162.482 58.8239 162.979 58.5872 163.612 58.5872C164.339 58.5872 164.869 58.9072 165.202 59.5472H165.242V56.4672H166.042V63.8672H165.242V63.0272ZM163.922 63.2772C164.102 63.2772 164.272 63.2539 164.432 63.2072C164.592 63.1605 164.732 63.0939 164.852 63.0072C164.972 62.9139 165.066 62.8039 165.132 62.6772C165.206 62.5439 165.242 62.3905 165.242 62.2172V60.3572C165.242 60.1839 165.206 60.0339 165.132 59.9072C165.066 59.7739 164.972 59.6639 164.852 59.5772C164.732 59.4839 164.592 59.4139 164.432 59.3672C164.272 59.3205 164.102 59.2972 163.922 59.2972C163.456 59.2972 163.092 59.4405 162.832 59.7272C162.579 60.0072 162.452 60.3805 162.452 60.8472V61.7272C162.452 62.1939 162.579 62.5705 162.832 62.8572C163.092 63.1372 163.456 63.2772 163.922 63.2772ZM174.004 65.1872H176.504V59.3872H173.914V58.7072H177.304V64.6872C177.304 65.0339 177.211 65.3172 177.024 65.5372C176.844 65.7572 176.558 65.8672 176.164 65.8672H174.004V65.1872ZM176.904 57.5672C176.671 57.5672 176.508 57.5205 176.414 57.4272C176.321 57.3272 176.274 57.2039 176.274 57.0572V56.8972C176.274 56.7505 176.321 56.6305 176.414 56.5372C176.508 56.4372 176.671 56.3872 176.904 56.3872C177.138 56.3872 177.301 56.4372 177.394 56.5372C177.488 56.6305 177.534 56.7505 177.534 56.8972V57.0572C177.534 57.2039 177.488 57.3272 177.394 57.4272C177.301 57.5205 177.138 57.5672 176.904 57.5672ZM181.98 63.9872C181.62 63.9872 181.294 63.9239 181 63.7972C180.714 63.6705 180.467 63.4905 180.26 63.2572C180.06 63.0172 179.907 62.7339 179.8 62.4072C179.694 62.0739 179.64 61.7005 179.64 61.2872C179.64 60.8805 179.694 60.5105 179.8 60.1772C179.907 59.8439 180.06 59.5605 180.26 59.3272C180.467 59.0872 180.714 58.9039 181 58.7772C181.294 58.6505 181.62 58.5872 181.98 58.5872C182.34 58.5872 182.664 58.6505 182.95 58.7772C183.244 58.9039 183.49 59.0872 183.69 59.3272C183.897 59.5605 184.054 59.8439 184.16 60.1772C184.267 60.5105 184.32 60.8805 184.32 61.2872C184.32 61.7005 184.267 62.0739 184.16 62.4072C184.054 62.7339 183.897 63.0172 183.69 63.2572C183.49 63.4905 183.244 63.6705 182.95 63.7972C182.664 63.9239 182.34 63.9872 181.98 63.9872ZM181.98 63.2972C182.427 63.2972 182.787 63.1639 183.06 62.8972C183.334 62.6305 183.47 62.2172 183.47 61.6572V60.9172C183.47 60.3572 183.334 59.9439 183.06 59.6772C182.787 59.4105 182.427 59.2772 181.98 59.2772C181.534 59.2772 181.174 59.4105 180.9 59.6772C180.627 59.9439 180.49 60.3572 180.49 60.9172V61.6572C180.49 62.2172 180.627 62.6305 180.9 62.8972C181.174 63.1639 181.534 63.2972 181.98 63.2972ZM185.927 56.4672H186.727V59.5472H186.767C187.1 58.9072 187.63 58.5872 188.357 58.5872C188.99 58.5872 189.483 58.8239 189.837 59.2972C190.197 59.7705 190.377 60.4339 190.377 61.2872C190.377 62.1405 190.197 62.8039 189.837 63.2772C189.483 63.7505 188.99 63.9872 188.357 63.9872C187.63 63.9872 187.1 63.6672 186.767 63.0272H186.727V63.8672H185.927V56.4672ZM188.047 63.2772C188.513 63.2772 188.873 63.1372 189.127 62.8572C189.387 62.5705 189.517 62.1939 189.517 61.7272V60.8472C189.517 60.3805 189.387 60.0072 189.127 59.7272C188.873 59.4405 188.513 59.2972 188.047 59.2972C187.867 59.2972 187.697 59.3205 187.537 59.3672C187.377 59.4139 187.237 59.4839 187.117 59.5772C186.997 59.6639 186.9 59.7739 186.827 59.9072C186.76 60.0339 186.727 60.1839 186.727 60.3572V62.2172C186.727 62.3905 186.76 62.5439 186.827 62.6772C186.9 62.8039 186.997 62.9139 187.117 63.0072C187.237 63.0939 187.377 63.1605 187.537 63.2072C187.697 63.2539 187.867 63.2772 188.047 63.2772ZM200.219 63.8672C199.825 63.8672 199.535 63.7572 199.349 63.5372C199.169 63.3172 199.079 63.0339 199.079 62.6872V59.3872H197.359V58.7072H198.639C198.812 58.7072 198.932 58.6739 198.999 58.6072C199.072 58.5339 199.109 58.4105 199.109 58.2372V56.8872H199.879V58.7072H202.229V59.3872H199.879V63.1872H202.229V63.8672H200.219ZM206.285 57.5672C206.052 57.5672 205.888 57.5205 205.795 57.4272C205.702 57.3272 205.655 57.2039 205.655 57.0572V56.8972C205.655 56.7505 205.702 56.6305 205.795 56.5372C205.888 56.4372 206.052 56.3872 206.285 56.3872C206.518 56.3872 206.682 56.4372 206.775 56.5372C206.868 56.6305 206.915 56.7505 206.915 56.8972V57.0572C206.915 57.2039 206.868 57.3272 206.775 57.4272C206.682 57.5205 206.518 57.5672 206.285 57.5672ZM204.025 63.1872H205.885V59.3872H204.025V58.7072H206.685V63.1872H208.425V63.8672H204.025V63.1872ZM212.211 63.8672C211.818 63.8672 211.528 63.7572 211.341 63.5372C211.161 63.3172 211.071 63.0339 211.071 62.6872V59.3872H209.351V58.7072H210.631C210.804 58.7072 210.924 58.6739 210.991 58.6072C211.064 58.5339 211.101 58.4105 211.101 58.2372V56.8872H211.871V58.7072H214.221V59.3872H211.871V63.1872H214.221V63.8672H212.211ZM218.207 63.8672C217.814 63.8672 217.524 63.7572 217.337 63.5372C217.157 63.3172 217.067 63.0339 217.067 62.6872V59.3872H215.347V58.7072H216.627C216.8 58.7072 216.92 58.6739 216.987 58.6072C217.06 58.5339 217.097 58.4105 217.097 58.2372V56.8872H217.867V58.7072H220.217V59.3872H217.867V63.1872H220.217V63.8672H218.207ZM221.753 63.1872H223.553V57.1472H221.753V56.4672H224.353V63.1872H226.153V63.8672H221.753V63.1872ZM230.039 63.9872C229.666 63.9872 229.329 63.9239 229.029 63.7972C228.736 63.6705 228.483 63.4905 228.269 63.2572C228.063 63.0172 227.903 62.7339 227.789 62.4072C227.676 62.0739 227.619 61.7039 227.619 61.2972C227.619 60.8839 227.676 60.5105 227.789 60.1772C227.909 59.8439 228.073 59.5605 228.279 59.3272C228.486 59.0872 228.733 58.9039 229.019 58.7772C229.313 58.6505 229.636 58.5872 229.989 58.5872C230.336 58.5872 230.649 58.6505 230.929 58.7772C231.216 58.9039 231.459 59.0805 231.659 59.3072C231.859 59.5272 232.013 59.7905 232.119 60.0972C232.226 60.4039 232.279 60.7405 232.279 61.1072V61.4872H228.459V61.7272C228.459 61.9539 228.496 62.1639 228.569 62.3572C228.643 62.5505 228.746 62.7172 228.879 62.8572C229.019 62.9972 229.186 63.1072 229.379 63.1872C229.579 63.2605 229.799 63.2972 230.039 63.2972C230.386 63.2972 230.686 63.2172 230.939 63.0572C231.193 62.8972 231.386 62.6772 231.519 62.3972L232.109 62.7972C231.956 63.1439 231.699 63.4305 231.339 63.6572C230.986 63.8772 230.553 63.9872 230.039 63.9872ZM229.989 59.2472C229.769 59.2472 229.566 59.2872 229.379 59.3672C229.193 59.4472 229.029 59.5572 228.889 59.6972C228.756 59.8372 228.649 60.0039 228.569 60.1972C228.496 60.3839 228.459 60.5905 228.459 60.8172V60.8872H231.419V60.7772C231.419 60.5505 231.383 60.3439 231.309 60.1572C231.243 59.9705 231.146 59.8105 231.019 59.6772C230.899 59.5372 230.749 59.4305 230.569 59.3572C230.396 59.2839 230.203 59.2472 229.989 59.2472ZM235.515 62.5072H236.805L235.655 65.2772H234.985L235.515 62.5072ZM149.77 73.1872H151.28V69.3872H149.77V68.7072H152.08V70.0072H152.13C152.237 69.6005 152.437 69.2839 152.73 69.0572C153.03 68.8239 153.41 68.7072 153.87 68.7072H154.59V69.5072H153.62C153.16 69.5072 152.787 69.6405 152.5 69.9072C152.22 70.1739 152.08 70.5239 152.08 70.9572V73.1872H154.08V73.8672H149.77V73.1872ZM157.996 73.9872C157.636 73.9872 157.309 73.9239 157.016 73.7972C156.729 73.6705 156.483 73.4905 156.276 73.2572C156.076 73.0172 155.923 72.7339 155.816 72.4072C155.709 72.0739 155.656 71.7005 155.656 71.2872C155.656 70.8805 155.709 70.5105 155.816 70.1772C155.923 69.8439 156.076 69.5605 156.276 69.3272C156.483 69.0872 156.729 68.9039 157.016 68.7772C157.309 68.6505 157.636 68.5872 157.996 68.5872C158.356 68.5872 158.679 68.6505 158.966 68.7772C159.259 68.9039 159.506 69.0872 159.706 69.3272C159.913 69.5605 160.069 69.8439 160.176 70.1772C160.283 70.5105 160.336 70.8805 160.336 71.2872C160.336 71.7005 160.283 72.0739 160.176 72.4072C160.069 72.7339 159.913 73.0172 159.706 73.2572C159.506 73.4905 159.259 73.6705 158.966 73.7972C158.679 73.9239 158.356 73.9872 157.996 73.9872ZM157.996 73.2972C158.443 73.2972 158.803 73.1639 159.076 72.8972C159.349 72.6305 159.486 72.2172 159.486 71.6572V70.9172C159.486 70.3572 159.349 69.9439 159.076 69.6772C158.803 69.4105 158.443 69.2772 157.996 69.2772C157.549 69.2772 157.189 69.4105 156.916 69.6772C156.643 69.9439 156.506 70.3572 156.506 70.9172V71.6572C156.506 72.2172 156.643 72.6305 156.916 72.8972C157.189 73.1639 157.549 73.2972 157.996 73.2972ZM161.792 73.1872H163.592V67.1472H161.792V66.4672H164.392V73.1872H166.192V73.8672H161.792V73.1872ZM170.078 73.9872C169.705 73.9872 169.368 73.9239 169.068 73.7972C168.775 73.6705 168.522 73.4905 168.308 73.2572C168.102 73.0172 167.942 72.7339 167.828 72.4072C167.715 72.0739 167.658 71.7039 167.658 71.2972C167.658 70.8839 167.715 70.5105 167.828 70.1772C167.948 69.8439 168.112 69.5605 168.318 69.3272C168.525 69.0872 168.772 68.9039 169.058 68.7772C169.352 68.6505 169.675 68.5872 170.028 68.5872C170.375 68.5872 170.688 68.6505 170.968 68.7772C171.255 68.9039 171.498 69.0805 171.698 69.3072C171.898 69.5272 172.052 69.7905 172.158 70.0972C172.265 70.4039 172.318 70.7405 172.318 71.1072V71.4872H168.498V71.7272C168.498 71.9539 168.535 72.1639 168.608 72.3572C168.682 72.5505 168.785 72.7172 168.918 72.8572C169.058 72.9972 169.225 73.1072 169.418 73.1872C169.618 73.2605 169.838 73.2972 170.078 73.2972C170.425 73.2972 170.725 73.2172 170.978 73.0572C171.232 72.8972 171.425 72.6772 171.558 72.3972L172.148 72.7972C171.995 73.1439 171.738 73.4305 171.378 73.6572C171.025 73.8772 170.592 73.9872 170.078 73.9872ZM170.028 69.2472C169.808 69.2472 169.605 69.2872 169.418 69.3672C169.232 69.4472 169.068 69.5572 168.928 69.6972C168.795 69.8372 168.688 70.0039 168.608 70.1972C168.535 70.3839 168.498 70.5905 168.498 70.8172V70.8872H171.458V70.7772C171.458 70.5505 171.422 70.3439 171.348 70.1572C171.282 69.9705 171.185 69.8105 171.058 69.6772C170.938 69.5372 170.788 69.4305 170.608 69.3572C170.435 69.2839 170.242 69.2472 170.028 69.2472ZM179.96 73.8672V68.7072H180.76V69.5472H180.8C180.854 69.4205 180.92 69.3005 181 69.1872C181.08 69.0672 181.177 68.9639 181.29 68.8772C181.41 68.7905 181.55 68.7205 181.71 68.6672C181.87 68.6139 182.057 68.5872 182.27 68.5872C182.81 68.5872 183.244 68.7605 183.57 69.1072C183.897 69.4472 184.06 69.9305 184.06 70.5572V73.8672H183.26V70.6972C183.26 70.2239 183.157 69.8739 182.95 69.6472C182.744 69.4139 182.44 69.2972 182.04 69.2972C181.88 69.2972 181.724 69.3172 181.57 69.3572C181.417 69.3972 181.28 69.4572 181.16 69.5372C181.04 69.6172 180.944 69.7205 180.87 69.8472C180.797 69.9739 180.76 70.1205 180.76 70.2872V73.8672H179.96ZM189.927 73.8672C189.613 73.8672 189.39 73.7872 189.257 73.6272C189.123 73.4672 189.04 73.2672 189.007 73.0272H188.957C188.843 73.3272 188.66 73.5639 188.407 73.7372C188.16 73.9039 187.827 73.9872 187.407 73.9872C186.867 73.9872 186.437 73.8472 186.117 73.5672C185.797 73.2872 185.637 72.9039 185.637 72.4172C185.637 71.9372 185.81 71.5672 186.157 71.3072C186.51 71.0472 187.077 70.9172 187.857 70.9172H188.957V70.4072C188.957 70.0272 188.85 69.7439 188.637 69.5572C188.423 69.3639 188.12 69.2672 187.727 69.2672C187.38 69.2672 187.097 69.3372 186.877 69.4772C186.657 69.6105 186.48 69.7939 186.347 70.0272L185.807 69.6272C185.873 69.4939 185.963 69.3639 186.077 69.2372C186.19 69.1105 186.33 69.0005 186.497 68.9072C186.663 68.8072 186.853 68.7305 187.067 68.6772C187.28 68.6172 187.517 68.5872 187.777 68.5872C188.383 68.5872 188.863 68.7405 189.217 69.0472C189.577 69.3539 189.757 69.7805 189.757 70.3272V73.1672H190.477V73.8672H189.927ZM187.547 73.3172C187.753 73.3172 187.94 73.2939 188.107 73.2472C188.28 73.1939 188.43 73.1272 188.557 73.0472C188.683 72.9605 188.78 72.8605 188.847 72.7472C188.92 72.6272 188.957 72.5005 188.957 72.3672V71.5172H187.857C187.377 71.5172 187.027 71.5839 186.807 71.7172C186.587 71.8505 186.477 72.0439 186.477 72.2972V72.5072C186.477 72.7739 186.57 72.9772 186.757 73.1172C186.95 73.2505 187.213 73.3172 187.547 73.3172ZM191.513 73.8672V68.7072H192.253V69.3072H192.293C192.373 69.1072 192.486 68.9372 192.633 68.7972C192.779 68.6572 192.996 68.5872 193.283 68.5872C193.583 68.5872 193.806 68.6639 193.953 68.8172C194.099 68.9639 194.189 69.1572 194.223 69.3972H194.253C194.346 69.1639 194.479 68.9705 194.653 68.8172C194.826 68.6639 195.066 68.5872 195.373 68.5872C195.793 68.5872 196.073 68.7339 196.213 69.0272C196.359 69.3205 196.433 69.7405 196.433 70.2872V73.8672H195.693V70.4172C195.693 69.9772 195.646 69.6739 195.553 69.5072C195.466 69.3339 195.303 69.2472 195.063 69.2472C194.849 69.2472 194.676 69.3172 194.543 69.4572C194.409 69.5905 194.343 69.7972 194.343 70.0772V73.8672H193.603V70.4172C193.603 69.9772 193.556 69.6739 193.463 69.5072C193.376 69.3339 193.216 69.2472 192.983 69.2472C192.769 69.2472 192.593 69.3172 192.453 69.4572C192.319 69.5905 192.253 69.7972 192.253 70.0772V73.8672H191.513ZM200.059 73.9872C199.685 73.9872 199.349 73.9239 199.049 73.7972C198.755 73.6705 198.502 73.4905 198.289 73.2572C198.082 73.0172 197.922 72.7339 197.809 72.4072C197.695 72.0739 197.639 71.7039 197.639 71.2972C197.639 70.8839 197.695 70.5105 197.809 70.1772C197.929 69.8439 198.092 69.5605 198.299 69.3272C198.505 69.0872 198.752 68.9039 199.039 68.7772C199.332 68.6505 199.655 68.5872 200.009 68.5872C200.355 68.5872 200.669 68.6505 200.949 68.7772C201.235 68.9039 201.479 69.0805 201.679 69.3072C201.879 69.5272 202.032 69.7905 202.139 70.0972C202.245 70.4039 202.299 70.7405 202.299 71.1072V71.4872H198.479V71.7272C198.479 71.9539 198.515 72.1639 198.589 72.3572C198.662 72.5505 198.765 72.7172 198.899 72.8572C199.039 72.9972 199.205 73.1072 199.399 73.1872C199.599 73.2605 199.819 73.2972 200.059 73.2972C200.405 73.2972 200.705 73.2172 200.959 73.0572C201.212 72.8972 201.405 72.6772 201.539 72.3972L202.129 72.7972C201.975 73.1439 201.719 73.4305 201.359 73.6572C201.005 73.8772 200.572 73.9872 200.059 73.9872ZM200.009 69.2472C199.789 69.2472 199.585 69.2872 199.399 69.3672C199.212 69.4472 199.049 69.5572 198.909 69.6972C198.775 69.8372 198.669 70.0039 198.589 70.1972C198.515 70.3839 198.479 70.5905 198.479 70.8172V70.8872H201.439V70.7772C201.439 70.5505 201.402 70.3439 201.329 70.1572C201.262 69.9705 201.165 69.8105 201.039 69.6772C200.919 69.5372 200.769 69.4305 200.589 69.3572C200.415 69.2839 200.222 69.2472 200.009 69.2472Z" fill="#9199A3"/>
<path d="M286.221 38.2149C290.209 21.6924 280.048 5.06537 263.526 1.07732C247.003 -2.91073 230.376 7.25042 226.388 23.7729C222.4 40.2954 232.561 56.9224 249.084 60.9105C265.606 64.8985 282.233 54.7374 286.221 38.2149Z" fill="#063D7A"/>
<path d="M288.049 34.9225C290.707 18.7911 279.786 3.55853 263.655 0.899567C247.523 -1.75939 232.291 9.16215 229.632 25.2935C226.973 41.4249 237.894 56.6575 254.026 59.3164C270.157 61.9754 285.39 51.0538 288.049 34.9225Z" fill="white" stroke="#063D7A" stroke-miterlimit="10"/>
<path d="M281.236 49.4344C278.486 52.631 275.083 55.2023 271.257 56.9756C267.431 58.7488 263.27 59.6831 259.053 59.7156C254.836 59.7481 250.661 58.8781 246.808 57.164C242.955 55.45 239.513 52.9314 236.714 49.7776C237.906 47.8307 239.771 46.0897 241.887 45.734C242.739 45.5887 243.583 45.397 244.414 45.1599C244.614 45.11 244.807 45.0539 245.001 44.9915C245.55 44.823 246.093 44.6358 246.623 44.4299C246.891 44.3238 247.153 44.2177 247.415 44.0991C247.678 43.9806 248.002 43.8433 248.295 43.706C248.589 43.5687 248.869 43.419 249.15 43.2692C249.431 43.1194 249.712 42.9634 249.986 42.8012C250.261 42.639 250.535 42.4705 250.804 42.2958C251.072 42.121 251.247 42.0025 251.465 41.8465C251.543 41.7987 251.618 41.7467 251.69 41.6905C251.915 41.5282 252.133 41.3598 252.351 41.1913C252.607 40.9916 252.851 40.7919 253.094 40.5673C253.337 40.3426 253.568 40.143 253.805 39.9433C254.261 39.5065 254.704 39.0447 255.122 38.558L256.769 38.2772L257.019 38.2335L263.321 37.154L265.374 36.7983L265.905 36.7109C266.597 38.2522 268.057 39.2506 269.649 39.9058L269.855 39.9932C270.241 40.1492 270.635 40.2802 271.028 40.3988C273.112 41.0228 275.327 41.391 277.137 42.5953C279.433 44.1054 280.65 46.6887 281.236 49.4344Z" fill="#9DC1EB"/>
<path d="M255.253 38.0395C254.197 39.2566 252.785 40.11 251.217 40.4786C249.649 40.8471 248.004 40.712 246.517 40.0924C246.388 40.5274 246.351 40.9844 246.408 41.4344C246.465 41.8844 246.615 42.3177 246.848 42.707C246.352 42.4432 245.936 42.0532 245.64 41.5765C245.344 41.0998 245.179 40.5534 245.163 39.9926C244.77 40.8502 244.526 41.7679 244.439 42.707C241.487 43.2748 238.355 41.5526 236.888 38.9256C236.198 37.5776 235.825 36.0897 235.798 34.5756C235.771 33.0615 236.091 31.5613 236.732 30.1896L235.073 32.3673C234.536 31.0507 234.979 29.5344 235.697 28.3176C236.414 27.1008 237.425 26.0649 238.155 24.8481C240.09 21.5908 239.834 17.5473 240.445 13.8158C240.589 12.4086 241.109 11.066 241.949 9.92828C242.854 8.855 244.408 8.21228 245.693 8.7302C245.924 6.97676 248.133 6.15932 249.774 5.49164C252.489 4.39964 255.39 3.32636 258.273 3.8318C262.897 4.643 265.979 9.19196 270.404 10.7457C272.694 11.5507 275.196 11.5008 277.536 12.1435C279.876 12.7862 282.247 14.496 282.397 16.9171L279.901 15.6129C281.712 17.95 282.77 20.7826 282.934 23.7349C283.098 26.6872 282.36 29.6195 280.818 32.1427L280.35 29.8401C280.612 30.9571 279.689 31.9804 278.79 32.698C276.325 34.6636 273.23 36.1176 270.098 35.7556C269.174 35.6496 268.27 35.3875 267.346 35.2377C264.659 34.8339 261.915 35.3765 259.583 36.7728C258.29 37.5992 256.788 38.0387 255.253 38.0395Z" fill="#063D7A"/>
<path d="M256.352 32.7789C255.459 34.0269 254.018 37.7709 253.681 40.8909C253.344 44.0109 253.681 49.1277 254.461 49.1277C255.241 49.1277 256.576 42.4509 256.576 42.4509C256.576 42.4509 257.132 45.0093 258.448 45.7893C259.765 46.5693 262.118 51.7922 262.118 51.7922C262.118 51.7922 265.238 46.12 265.674 44.2293C266.111 42.3386 266.236 41.4525 266.791 42.1139C267.781 43.6718 268.636 45.3104 269.35 47.0123C269.905 48.3477 270.348 42.6443 269.568 39.5243C268.788 36.4043 267.01 34.3015 266.791 33.5215C266.573 32.7415 265.344 31.9615 265.344 31.9615C261.026 27.4375 257.244 31.5559 256.352 32.7789Z" fill="white" stroke="#063D7A" stroke-linecap="round" stroke-linejoin="round"/>
<path d="M255.459 34.6697C256.337 36.6762 257.008 38.767 257.462 40.9097C258.017 43.9174 261.581 50.4819 262.136 51.811C262.691 53.1401 264.364 47.5865 265.025 43.8051C265.687 40.0236 264.875 30.8633 264.875 30.8633C261.762 34.9692 255.459 34.6697 255.459 34.6697Z" fill="white" stroke="#063D7A" stroke-linecap="round" stroke-linejoin="round"/>
<path d="M248.938 14.0085C248.384 15.3468 247.759 16.6549 247.066 17.9272C246.486 19.0566 245.687 20.2422 245.818 21.5651C245.949 22.888 249.624 30.3011 251.184 31.9921C252.744 33.6832 258.117 37.9014 260.438 36.3227C265.574 32.8283 265.112 22.4761 264.563 20.7851C264.014 19.0941 263.315 19.5371 263.315 19.5371C263.028 19.7181 262.285 19.119 262.011 19.0067C260.426 18.339 258.691 18.2953 257.087 17.6401C255.37 16.9667 253.826 15.9153 252.57 14.5638C251.571 13.4406 250.698 12.1489 249.156 11.7246C249.631 11.8556 249.344 12.9477 248.938 14.0085Z" fill="white" stroke="#063D7A" stroke-linecap="round" stroke-linejoin="round"/>
<path d="M249.974 22.6334C250.139 22.3553 250.36 22.1144 250.623 21.9258C250.886 21.7373 251.185 21.6052 251.502 21.5378C251.818 21.4704 252.145 21.4692 252.462 21.5342C252.779 21.5993 253.079 21.7292 253.343 21.9157" stroke="#063D7A" stroke-linecap="round" stroke-linejoin="round"/>
<path d="M259.584 19.2324C256.645 18.3152 256.195 20.6052 256.195 20.6052" stroke="#063D7A" stroke-linecap="round" stroke-linejoin="round"/>
<path d="M253.462 24.6672C253.58 25.1727 253.493 25.6282 253.262 25.6844C253.031 25.7405 252.744 25.3724 252.638 24.8607C252.532 24.349 252.607 23.8997 252.838 23.8435C253.069 23.7874 253.343 24.1556 253.462 24.6672Z" fill="#063D7A"/>
<path d="M259.478 23.1637C259.596 23.6754 259.509 24.131 259.278 24.1871C259.047 24.2433 258.76 23.8689 258.654 23.3634C258.548 22.858 258.623 22.3962 258.853 22.3463C259.084 22.2963 259.353 22.6708 259.478 23.1637Z" fill="#063D7A"/>
<path d="M256.221 22.0391C256.221 25.0592 258.224 26.9874 258.093 28.0544C258.09 28.0788 258.082 28.1021 258.068 28.1226C258.055 28.143 258.037 28.16 258.015 28.1722C257.994 28.1843 257.97 28.1913 257.946 28.1925C257.921 28.1938 257.897 28.1892 257.874 28.1793C257.413 27.9359 256.863 27.5553 256.408 27.3181" stroke="#063D7A" stroke-linecap="round" stroke-linejoin="round"/>
<path d="M254.248 29.9023C254.687 30.4533 255.267 30.8765 255.925 31.1278C256.583 31.3791 257.297 31.4494 257.992 31.3313" stroke="#063D7A" stroke-linecap="round" stroke-linejoin="round"/>
<path d="M256.046 36.0928C256.046 36.0928 258.698 42.2017 260.894 41.6713C263.091 41.1409 264.383 31.1133 264.383 31.1133C264.383 31.1133 261.774 36.0117 259.596 36.7729C257.787 37.4094 256.046 36.0928 256.046 36.0928Z" fill="#063D7A"/>
<path d="M253.812 39.9297C253.581 40.1481 253.344 40.3665 253.101 40.5537C252.857 40.7409 252.614 40.9718 252.358 41.1777C252.146 41.3524 251.921 41.5147 251.697 41.6769C251.625 41.7331 251.55 41.7851 251.472 41.8329C251.254 41.9951 251.035 42.1387 250.811 42.2822C250.586 42.4257 250.274 42.6316 249.993 42.7876C249.712 42.9436 249.438 43.1121 249.157 43.2556C248.876 43.3991 248.589 43.5552 248.302 43.6924C248.015 43.8297 247.722 43.967 247.422 44.0856C247.123 44.2041 246.898 44.3164 246.63 44.4163C246.099 44.6222 245.557 44.8094 245.007 44.9779C244.814 45.0403 244.614 45.0964 244.421 45.1464C243.59 45.3834 242.746 45.5751 241.894 45.7204C239.778 46.0761 237.913 47.8171 236.721 49.764" stroke="#063D7A" stroke-linecap="round" stroke-linejoin="round"/>
<path d="M281.236 49.434C280.65 46.6884 279.433 44.105 277.149 42.5699C275.34 41.3656 273.124 41.0037 271.04 40.3734C270.647 40.2549 270.254 40.1238 269.867 39.9678L269.661 39.8867" stroke="#063D7A" stroke-linecap="round" stroke-linejoin="round"/>
<path d="M263.503 55.3614C263.503 56.054 263.116 56.6094 262.641 56.6094C262.167 56.6094 261.78 56.054 261.78 55.3614C261.78 54.6687 262.167 54.1133 262.641 54.1133C263.116 54.1133 263.503 54.6687 263.503 55.3614Z" fill="#063D7A"/>
<path d="M245.014 49.5332C246.468 52.1031 247.546 54.8686 248.215 57.7449" stroke="#063D7A" stroke-linecap="round" stroke-linejoin="round"/>
<path d="M247.952 49.8262L248.776 54.3565" stroke="#063D7A" stroke-linecap="round" stroke-linejoin="round"/>
<path d="M288.049 34.9225C290.707 18.7911 279.786 3.55853 263.655 0.899567C247.523 -1.75939 232.291 9.16215 229.632 25.2935C226.973 41.4249 237.894 56.6575 254.026 59.3164C270.157 61.9754 285.39 51.0538 288.049 34.9225Z" stroke="#063D7A" stroke-miterlimit="10"/>
<path d="M201.047 221.133V243.079C201.047 244.651 214.644 248.345 231.935 248.345C249.226 248.345 263.659 244.651 263.659 243.079V221.133H201.047Z" fill="white" stroke="#063D7A" stroke-miterlimit="10"/>
<path d="M201.047 234.742C201.047 236.315 214.644 240.015 231.935 240.015C249.226 240.015 263.659 236.315 263.659 234.742" fill="white"/>
<path d="M201.047 234.742C201.047 236.315 214.644 240.015 231.935 240.015C249.226 240.015 263.659 236.315 263.659 234.742" stroke="#063D7A" stroke-width="2" stroke-miterlimit="10"/>
<path d="M263.659 221.133C263.659 221.819 261.007 222.693 256.583 223.454C240.518 225.867 224.182 225.867 208.117 223.454C203.699 222.693 201.047 221.819 201.047 221.133C201.047 219.554 215.062 218.287 232.347 218.287C249.632 218.287 263.659 219.554 263.659 221.133Z" fill="#9DC1EB" stroke="#063D7A" stroke-miterlimit="10"/>
<path d="M256.583 223.466C240.518 225.879 224.182 225.879 208.117 223.466C212.679 222.668 221.845 222.125 232.347 222.125C242.849 222.125 252.022 222.655 256.583 223.466Z" fill="#063D7A"/>
<path d="M243.548 124.213C243.548 124.213 243.548 120.981 239.024 116.463C234.5 111.945 231.598 109.35 231.598 109.35C231.598 109.35 229.333 116.781 233.533 121.312C236.621 124.499 239.971 127.421 243.548 130.048V124.213Z" fill="#9DC1EB"/>
<path d="M236.983 144.393C236.983 144.393 236.983 141.161 232.459 136.643C227.935 132.125 225.028 129.529 225.028 129.529C225.028 129.529 222.769 136.961 226.968 141.485C230.045 144.672 233.385 147.595 236.952 150.221L236.983 144.393Z" fill="#9DC1EB"/>
<path d="M243.26 129.723C243.26 129.723 243.609 126.503 248.583 122.485C253.556 118.466 256.695 116.201 256.695 116.201C256.695 116.201 258.161 123.833 253.506 127.882C250.106 130.715 246.474 133.257 242.648 135.483L243.26 129.723Z" fill="#9DC1EB"/>
<path d="M235.336 153.58C235.336 153.58 236.01 150.422 241.383 146.946C246.755 143.471 250.119 141.549 250.119 141.549C250.119 141.549 250.774 149.293 245.72 152.837C242.033 155.303 238.146 157.458 234.101 159.277L235.336 153.58Z" fill="#9DC1EB"/>
<path d="M236.827 179.532C236.827 179.532 236.827 176.299 241.345 171.775C245.863 167.251 248.777 164.668 248.777 164.668C248.777 164.668 251.042 172.1 246.842 176.618C243.756 179.806 240.406 182.729 236.827 185.354V179.532Z" fill="#9DC1EB"/>
<path d="M236.752 185.871C236.752 185.871 237.208 182.67 233.376 177.553C229.545 172.437 227.049 169.441 227.049 169.441C227.049 169.441 223.748 176.468 227.267 181.522C229.872 185.112 232.773 188.477 235.941 191.581L236.752 185.871Z" fill="#9DC1EB"/>
<path d="M232.284 204.69C232.284 204.69 232.284 201.458 236.814 196.94C241.345 192.422 244.24 189.826 244.24 189.826C244.24 189.826 246.48 197.258 242.299 201.782C239.21 204.968 235.86 207.89 232.284 210.518V204.69Z" fill="#9DC1EB"/>
<path d="M244.259 216.397C242.538 219.431 240.621 222.35 238.518 225.133C237.931 225.133 237.332 225.177 236.733 225.189H236.222L235.354 221.87L235.305 221.682C235.141 220.696 235.184 219.687 235.429 218.718C235.702 217.392 236.144 216.106 236.746 214.893C237.02 214.313 237.37 213.695 237.719 213.052C240.952 207.555 243.104 204.316 243.104 204.316C243.104 204.316 247.179 210.931 244.259 216.397Z" fill="#9DC1EB"/>
<path d="M236.072 225.221C235.76 224.179 235.448 223.112 235.142 222.045C234.905 221.215 234.674 220.385 234.443 219.549C234.212 218.712 234.006 217.957 233.819 217.184C233.126 214.582 232.571 212.248 232.29 210.582C232.006 208.798 232.006 206.98 232.29 205.197C232.415 204.348 232.59 203.493 232.802 202.626C233.594 199.331 234.867 195.805 235.816 191.456C236.022 190.533 236.209 189.584 236.371 188.586V188.467C236.458 187.912 236.546 187.338 236.621 186.751C236.621 186.601 236.658 186.458 236.671 186.308C236.702 186.04 236.733 185.771 236.752 185.497V185.466C236.783 185.166 236.802 184.842 236.814 184.567C236.873 183.399 236.873 182.228 236.814 181.06C236.44 173.198 233.806 165.56 234.318 159.114C234.374 158.382 234.478 157.655 234.63 156.936C235.015 155.187 235.515 153.465 236.128 151.782C236.327 151.202 236.546 150.628 236.752 150.054C236.752 150.016 236.752 149.979 236.795 149.935C236.839 149.891 236.883 149.717 236.92 149.611C238.948 144.531 241.438 139.733 242.661 133.387C242.811 132.563 242.948 131.746 243.073 130.922V130.891C243.123 130.529 243.179 130.167 243.229 129.805C243.229 129.605 243.285 129.399 243.31 129.181C243.379 128.707 243.435 128.22 243.485 127.746C243.66 126.279 243.791 124.807 243.897 123.334" stroke="#063D7A" stroke-linecap="round" stroke-linejoin="round"/>
<path d="M243.217 131.863L248.096 128.125" stroke="#063D7A" stroke-linecap="round" stroke-linejoin="round"/>
<path d="M243.448 127.557L241.407 123.926" stroke="#063D7A" stroke-linecap="round" stroke-linejoin="round"/>
<path d="M234.942 156.58C234.942 156.58 239.023 153.517 243.217 150.459" stroke="#063D7A" stroke-linecap="round" stroke-linejoin="round"/>
<path d="M236.983 150.21C236.983 150.21 233.582 143.546 229.726 139.115" stroke="#063D7A" stroke-linecap="round" stroke-linejoin="round"/>
<path d="M236.989 184.154C239.32 179.867 242.263 175.942 245.725 172.504" stroke="#063D7A" stroke-linecap="round" stroke-linejoin="round"/>
<path d="M236.191 188.66C234.954 185.745 233.474 182.94 231.767 180.273C229.389 176.76 229.046 176.305 229.046 176.305" stroke="#063D7A" stroke-linecap="round" stroke-linejoin="round"/>
<path d="M232.284 210.605C233.32 208.039 234.549 205.555 235.96 203.174C237.373 200.965 238.967 198.878 240.727 196.934" stroke="#063D7A" stroke-linecap="round" stroke-linejoin="round"/>
<path d="M236.733 225.208C236.792 223.462 237.217 221.749 237.981 220.178C239.71 216.89 241.613 212.578 242.406 210.881" stroke="#063D7A" stroke-linecap="round" stroke-linejoin="round"/>
<path d="M213.932 167.382C213.932 167.382 213.577 165.354 215.923 162.028C218.269 158.702 219.81 156.762 219.81 156.762C219.81 156.762 222.038 161.173 219.891 164.474C218.3 166.804 216.516 168.996 214.556 171.026L213.932 167.382Z" fill="#9DC1EB"/>
<path d="M220.235 179.32C220.235 179.32 219.886 177.292 222.232 173.972C224.578 170.652 226.12 168.699 226.12 168.699C226.12 168.699 228.341 173.117 226.201 176.406C224.62 178.736 222.845 180.93 220.897 182.964L220.235 179.32Z" fill="#9DC1EB"/>
<path d="M214.7 170.801C214.7 170.801 214.126 168.817 210.582 166.838C207.037 164.86 204.797 163.787 204.797 163.787C204.797 163.787 204.71 168.729 208.098 170.751C210.54 172.163 213.097 173.365 215.742 174.345L214.7 170.801Z" fill="#9DC1EB"/>
<path d="M222.263 184.88C222.263 184.88 221.496 182.976 217.752 181.379C214.008 179.781 211.674 178.945 211.674 178.945C211.674 178.945 212.104 183.869 215.655 185.541C218.231 186.687 220.899 187.616 223.63 188.318L222.263 184.88Z" fill="#9DC1EB"/>
<path d="M224.147 201.339C224.147 201.339 223.798 199.304 220.472 196.971C217.146 194.637 215.043 193.32 215.043 193.32C215.043 193.32 214.419 198.225 217.539 200.609C219.825 202.258 222.242 203.719 224.765 204.977L224.147 201.339Z" fill="#9DC1EB"/>
<path d="M224.884 205.303C224.884 205.303 224.26 203.343 226.094 199.724C227.929 196.105 229.214 193.971 229.214 193.971C229.214 193.971 232.047 198.027 230.369 201.583C229.116 204.117 227.655 206.543 226.001 208.834L224.884 205.303Z" fill="#9DC1EB"/>
<path d="M230.562 221.645C230.562 221.645 230.799 219.604 234.013 217.04C237.226 214.475 239.23 213.09 239.23 213.09C239.23 213.09 240.122 217.951 237.139 220.503C234.954 222.292 232.622 223.895 230.169 225.295L230.562 221.645Z" fill="#9DC1EB"/>
<path d="M229.72 216.602C229.72 216.602 229.37 214.581 226.044 212.234C222.718 209.888 220.615 208.584 220.615 208.584C220.615 208.584 219.991 213.489 223.111 215.866C225.397 217.521 227.816 218.982 230.344 220.234L229.72 216.602Z" fill="#9DC1EB"/>
<path d="M229.052 225.233C228.204 225.233 227.355 225.195 226.525 225.164C225.439 225.133 224.378 225.083 223.336 225.033C221.14 221.957 222.9 217.545 222.9 217.545C222.9 217.545 224.597 219.33 227.224 222.456C227.952 223.298 228.567 224.231 229.052 225.233Z" fill="#9DC1EB"/>
<path opacity="0.2" d="M243.548 124.213C243.548 124.213 243.548 120.981 239.024 116.463C234.5 111.945 231.598 109.35 231.598 109.35C231.598 109.35 229.333 116.781 233.533 121.312C236.621 124.499 239.971 127.421 243.548 130.048V124.213Z" fill="#021429"/>
<path opacity="0.2" d="M236.983 144.393C236.983 144.393 236.983 141.161 232.459 136.643C227.935 132.125 225.028 129.529 225.028 129.529C225.028 129.529 222.769 136.961 226.968 141.485C230.045 144.672 233.385 147.595 236.952 150.221L236.983 144.393Z" fill="#021429"/>
<path opacity="0.2" d="M243.26 129.723C243.26 129.723 243.609 126.503 248.583 122.485C253.556 118.466 256.695 116.201 256.695 116.201C256.695 116.201 258.161 123.833 253.506 127.882C250.106 130.715 246.474 133.257 242.648 135.483L243.26 129.723Z" fill="#021429"/>
<path opacity="0.2" d="M235.336 153.58C235.336 153.58 236.01 150.422 241.383 146.946C246.755 143.471 250.119 141.549 250.119 141.549C250.119 141.549 250.774 149.293 245.72 152.837C242.033 155.303 238.146 157.458 234.101 159.277L235.336 153.58Z" fill="#021429"/>
<path opacity="0.2" d="M236.827 179.532C236.827 179.532 236.827 176.299 241.345 171.775C245.863 167.251 248.777 164.668 248.777 164.668C248.777 164.668 251.042 172.1 246.842 176.618C243.756 179.806 240.406 182.729 236.827 185.354V179.532Z" fill="#021429"/>
<path opacity="0.2" d="M232.284 204.69C232.284 204.69 232.284 201.458 236.814 196.94C241.345 192.422 244.24 189.826 244.24 189.826C244.24 189.826 246.48 197.258 242.299 201.782C239.21 204.968 235.86 207.89 232.284 210.518V204.69Z" fill="#021429"/>
<path opacity="0.2" d="M213.932 167.382C213.932 167.382 213.577 165.354 215.923 162.028C218.269 158.702 219.81 156.762 219.81 156.762C219.81 156.762 222.038 161.173 219.891 164.474C218.3 166.804 216.516 168.996 214.556 171.026L213.932 167.382Z" fill="#021429"/>
<path opacity="0.2" d="M233.377 177.553C229.539 172.43 227.049 169.441 227.049 169.441C227.049 169.441 226.906 169.741 226.712 170.259C226.56 169.715 226.362 169.184 226.12 168.674C226.12 168.674 224.578 170.621 222.232 173.947C219.886 177.273 220.235 179.294 220.235 179.294L220.859 182.938C222.616 181.112 224.232 179.155 225.695 177.085C225.822 178.675 226.362 180.205 227.261 181.522C229.866 185.112 232.767 188.477 235.935 191.581L236.746 185.846C236.746 185.846 237.208 182.67 233.377 177.553Z" fill="#021429"/>
<path opacity="0.2" d="M214.7 170.801C214.7 170.801 214.126 168.817 210.582 166.838C207.037 164.86 204.797 163.787 204.797 163.787C204.797 163.787 204.71 168.729 208.098 170.751C210.54 172.163 213.097 173.365 215.742 174.345L214.7 170.801Z" fill="#021429"/>
<path opacity="0.2" d="M222.263 184.88C222.263 184.88 221.496 182.976 217.752 181.379C214.008 179.781 211.674 178.945 211.674 178.945C211.674 178.945 212.104 183.869 215.655 185.541C218.231 186.687 220.899 187.616 223.63 188.318L222.263 184.88Z" fill="#021429"/>
<path opacity="0.2" d="M224.147 201.339C224.147 201.339 223.798 199.304 220.472 196.971C217.146 194.637 215.043 193.32 215.043 193.32C215.043 193.32 214.419 198.225 217.539 200.609C219.825 202.258 222.242 203.719 224.765 204.977L224.147 201.339Z" fill="#021429"/>
<path opacity="0.2" d="M224.884 205.303C224.884 205.303 224.26 203.343 226.094 199.724C227.929 196.105 229.214 193.971 229.214 193.971C229.214 193.971 232.047 198.027 230.369 201.583C229.116 204.117 227.655 206.543 226.001 208.834L224.884 205.303Z" fill="#021429"/>
<path opacity="0.2" d="M243.104 204.316C243.104 204.316 240.952 207.58 237.719 213.052C237.345 213.676 237.02 214.3 236.746 214.893C235.978 215.474 235.061 216.179 234.013 217.015C230.799 219.579 230.562 221.62 230.562 221.62L230.169 225.27C231.965 224.243 233.697 223.108 235.354 221.87L236.222 225.189H236.733C237.357 225.189 237.931 225.158 238.518 225.133C240.621 222.35 242.538 219.431 244.259 216.397C247.179 210.931 243.104 204.316 243.104 204.316Z" fill="#021429"/>
<path opacity="0.2" d="M229.72 216.602C229.72 216.602 229.37 214.581 226.044 212.234C222.718 209.888 220.615 208.584 220.615 208.584C220.615 208.584 219.991 213.489 223.111 215.866C225.397 217.521 227.816 218.982 230.344 220.234L229.72 216.602Z" fill="#021429"/>
<path opacity="0.2" d="M229.052 225.233C228.204 225.233 227.355 225.195 226.525 225.164C225.439 225.133 224.378 225.083 223.336 225.033C221.14 221.957 222.9 217.545 222.9 217.545C222.9 217.545 224.597 219.33 227.224 222.456C227.952 223.298 228.567 224.231 229.052 225.233Z" fill="#021429"/>
<path d="M230.069 225.246C230.25 223.293 230.369 221.502 230.363 220.329C230.344 219.195 230.148 218.07 229.782 216.997C229.614 216.46 229.395 215.917 229.158 215.368C228.297 213.402 227.124 211.343 226.069 208.741C225.807 208.117 225.558 207.456 225.333 206.751C225.233 206.464 225.134 206.164 225.04 205.865C225.043 205.821 225.043 205.777 225.04 205.733C224.971 205.515 224.915 205.297 224.853 205.078C224.797 204.885 224.753 204.685 224.709 204.454C224.566 203.83 224.46 203.169 224.372 202.52C223.711 197.49 224.553 192.324 223.505 188.28C223.387 187.829 223.243 187.386 223.074 186.951C222.645 185.9 222.147 184.879 221.583 183.893C221.39 183.544 221.19 183.207 220.959 182.876C220.95 182.853 220.939 182.83 220.928 182.808C220.884 182.733 220.847 182.67 220.803 182.608C218.987 179.638 216.903 176.905 215.449 173.061C215.262 172.562 215.087 172.056 214.919 171.538C214.906 171.512 214.895 171.485 214.888 171.457C214.825 171.264 214.763 171.077 214.707 170.877C214.669 170.777 214.632 170.671 214.601 170.565C214.501 170.253 214.407 169.941 214.313 169.629C214.045 168.73 213.802 167.825 213.577 166.908" stroke="#063D7A" stroke-linecap="round" stroke-linejoin="round"/>
<path d="M214.968 172.136L211.505 170.32" stroke="#063D7A" stroke-linecap="round" stroke-linejoin="round"/>
<path d="M214.356 169.467L215.243 166.971" stroke="#063D7A" stroke-linecap="round" stroke-linejoin="round"/>
<path d="M222.837 186.738C222.837 186.738 219.96 185.265 216.983 183.799" stroke="#063D7A" stroke-linecap="round" stroke-linejoin="round"/>
<path d="M220.896 182.962C221.745 180.277 222.863 177.684 224.235 175.225" stroke="#063D7A" stroke-linecap="round" stroke-linejoin="round"/>
<path d="M224.547 204.235C222.62 201.803 220.35 199.663 217.808 197.883" stroke="#063D7A" stroke-linecap="round" stroke-linejoin="round"/>
<path d="M225.539 206.993C226 205.026 226.627 203.102 227.411 201.24C228.528 198.782 228.659 198.457 228.659 198.457" stroke="#063D7A" stroke-linecap="round" stroke-linejoin="round"/>
<path d="M230.213 223.829C231.344 222.433 232.597 221.141 233.957 219.967C234.819 219.33 235.629 218.624 236.378 217.857" stroke="#063D7A" stroke-linecap="round" stroke-linejoin="round"/>
<path d="M230.362 220.348C229.434 218.848 228.391 217.424 227.242 216.086C226.118 214.856 224.892 213.723 223.579 212.697" stroke="#063D7A" stroke-linecap="round" stroke-linejoin="round"/>
<path d="M224.054 221.596C224.534 222.282 225.501 223.717 226.55 225.159" stroke="#063D7A" stroke-linecap="round" stroke-linejoin="round"/>
<path d="M171.694 238.505C166.028 234.53 159.495 228.097 157.342 218.73C155.617 223.186 153.291 227.385 150.428 231.21C146.39 236.437 140.797 240.246 134.454 242.087C132.9 242.561 132.026 243.091 132.026 243.653C132.026 245.644 142.996 247.26 156.531 247.26C170.065 247.26 181.042 245.644 181.042 243.653C181.042 243.166 180.368 242.692 179.17 242.268C176.518 241.361 174.002 240.095 171.694 238.505Z" fill="white" stroke="#063D7A" stroke-miterlimit="10"/>
<path d="M154.865 137.354L149.785 223.11L156.699 233.125L163.519 224.476L159.594 137.591L154.865 137.354Z" fill="white" stroke="#063D7A" stroke-miterlimit="10"/>
<path d="M184.785 130.016H116.851V134.496C116.851 137.909 134.859 140.68 157.074 140.68C179.288 140.68 197.297 137.909 197.297 134.496V130.016H184.785Z" fill="#063D7A"/>
<path d="M157.074 136.2C179.288 136.2 197.297 133.431 197.297 130.016C197.297 126.601 179.288 123.832 157.074 123.832C134.859 123.832 116.851 126.601 116.851 130.016C116.851 133.431 134.859 136.2 157.074 136.2Z" fill="#9DC1EB"/>
<path d="M157.074 136.2C179.288 136.2 197.297 133.431 197.297 130.016C197.297 126.601 179.288 123.832 157.074 123.832C134.859 123.832 116.851 126.601 116.851 130.016C116.851 133.431 134.859 136.2 157.074 136.2Z" stroke="#063D7A" stroke-linecap="round" stroke-linejoin="round"/>
<path d="M184.511 117.637H163.919C163.919 117.637 163.919 123.165 166.827 130.398C166.827 131.783 170.153 132.894 174.259 132.894C178.365 132.894 181.684 131.777 181.684 130.398C181.69 130.329 181.69 130.26 181.684 130.192C184.48 123.059 184.511 117.637 184.511 117.637Z" fill="white" stroke="#063D7A" stroke-linecap="round" stroke-linejoin="round"/>
<path d="M174.284 120.638C179.994 120.638 184.624 119.294 184.624 117.636C184.624 115.979 179.994 114.635 174.284 114.635C168.574 114.635 163.944 115.979 163.944 117.636C163.944 119.294 168.574 120.638 174.284 120.638Z" fill="white" stroke="#063D7A" stroke-linecap="round" stroke-linejoin="round"/>
<path d="M174.284 120.144C179.408 120.144 183.563 119.021 183.563 117.635C183.563 116.25 179.408 115.127 174.284 115.127C169.159 115.127 165.005 116.25 165.005 117.635C165.005 119.021 169.159 120.144 174.284 120.144Z" fill="white" stroke="#063D7A" stroke-linecap="round" stroke-linejoin="round"/>
<path d="M165.878 118.697C167.363 119.552 170.564 120.139 174.283 120.139C178.002 120.139 181.203 119.552 182.682 118.697C181.203 117.849 177.996 117.256 174.283 117.256C170.57 117.256 167.363 117.849 165.878 118.697Z" fill="#063D7A" stroke="#063D7A" stroke-linecap="round" stroke-linejoin="round"/>
<path d="M169.959 118.935C169.959 118.935 167.27 112.22 168.056 110.429C168.842 108.639 171.413 108.863 172.312 110.654C173.21 112.445 173.653 119.159 173.653 119.159C173.653 119.159 170.976 120.058 169.959 118.935Z" fill="#9DC1EB" stroke="#063D7A" stroke-miterlimit="10"/>
<path d="M172.311 119.608C172.311 119.608 170.184 107.752 170.739 105.505C171.294 103.259 174.102 102.479 176.112 104.158C178.121 105.836 177.36 114.348 177.36 115.577C177.36 116.806 177.247 119.383 177.247 119.383C175.652 119.899 173.947 119.976 172.311 119.608Z" fill="#9DC1EB" stroke="#063D7A" stroke-miterlimit="10"/>
<path d="M176.673 119.382C176.673 119.382 175.013 114.79 176.006 112.999C176.998 111.208 179.026 111.882 179.026 113.336C179.026 114.79 179.138 118.266 178.914 119.046C178.689 119.826 177.46 120.056 176.673 119.382Z" fill="#9DC1EB" stroke="#063D7A" stroke-miterlimit="10"/>
<path d="M174.215 119.259C171.413 108.651 173.766 103.365 173.766 103.365C173.766 103.365 177.123 109.187 175.332 119.259" stroke="#063D7A" stroke-linecap="round" stroke-linejoin="round"/>
<path d="M169.622 110.205C169.622 110.205 167.045 110.317 171.3 119.159" stroke="#063D7A" stroke-linecap="round" stroke-linejoin="round"/>
<path d="M108.389 239.547C102.723 236.041 96.1902 230.375 94.0374 222.119C92.2809 226.096 89.9515 229.794 87.1234 233.095C83.1486 237.744 77.4702 240.989 71.149 242.68C69.5953 243.098 68.7217 243.566 68.7217 244.059C68.7217 245.812 79.6916 247.235 93.2262 247.235C106.761 247.235 117.737 245.812 117.737 244.059C117.737 243.628 117.063 243.21 115.865 242.811C113.246 242.042 110.734 240.945 108.389 239.547Z" fill="white" stroke="#063D7A" stroke-miterlimit="10"/>
<path d="M91.5598 150.422L86.4805 225.976L93.3944 234.805L100.215 227.186L96.2897 150.634L91.5598 150.422Z" fill="white" stroke="#063D7A" stroke-miterlimit="10"/>
<path d="M120.962 153.893H53.04V158.379C53.04 161.786 71.0487 164.557 93.2631 164.557C115.477 164.557 133.486 161.786 133.486 158.379V153.893H120.962Z" fill="#063D7A"/>
<path d="M93.2572 160.083C115.472 160.083 133.48 157.314 133.48 153.899C133.48 150.483 115.472 147.715 93.2572 147.715C71.0426 147.715 53.0342 150.483 53.0342 153.899C53.0342 157.314 71.0426 160.083 93.2572 160.083Z" fill="#9DC1EB" stroke="#063D7A" stroke-miterlimit="10"/>
<path d="M157.748 227.449C156.4 228.947 154.004 228.941 152.132 228.354C149.211 227.456 146.703 225.534 143.826 224.523C140.294 223.275 136.107 223.325 133.362 220.779C131.987 219.405 131.081 217.631 130.772 215.712L130.697 215.288C130.455 213.228 130.44 211.148 130.654 209.085L137.486 205.098C141.992 211.494 149.655 217.54 154.041 221.078C155.158 221.922 156.213 222.844 157.199 223.836C158.777 225.796 157.748 227.449 157.748 227.449Z" fill="white"/>
<path d="M130.628 209.078C130.415 211.141 130.43 213.221 130.672 215.281C130.928 217.356 131.865 219.287 133.336 220.772C136.082 223.324 140.269 223.268 143.801 224.516C146.677 225.527 149.186 227.449 152.106 228.347C154.028 228.934 156.399 228.94 157.722 227.443C157.722 227.443 158.752 225.789 157.148 223.823C155.544 221.858 143.57 213.79 137.436 205.104L130.628 209.078Z" stroke="#063D7A" stroke-miterlimit="10"/>
<path d="M74.8058 128.046C74.8058 128.046 66.9184 136.108 67.636 145.824C68.3536 155.539 80.9459 159.851 89.2638 163.177C94.4342 165.295 99.2103 168.269 103.391 171.975C103.391 171.975 100.677 179.582 107.809 189.086C114.941 198.589 131.109 210.482 131.109 210.482C132.598 210.467 134.047 210.006 135.271 209.158C136.494 208.31 137.436 207.116 137.973 205.728C137.973 205.728 122.373 178.39 118.523 166.983C118.523 166.983 117.806 158.247 114.211 155.096C114.211 155.096 118.979 150.004 118.935 144.282C118.891 138.56 113.569 129.637 107.329 125.5L106.867 126.929L101.251 131.49C101.251 131.49 88.4589 132.501 79.5856 125.138V123.004L78.8805 123.89L74.8058 128.046Z" fill="#063D7A"/>
<path d="M112.357 152.457C113.033 153.299 113.658 154.18 114.229 155.096" stroke="white" stroke-linecap="round" stroke-linejoin="round"/>
<path d="M96.627 137.6C96.627 137.6 104.976 144.046 110.648 150.429" stroke="white" stroke-linecap="round" stroke-linejoin="round"/>
<path d="M103.391 143.272C103.391 143.272 106.348 140.439 106.891 137.6" stroke="white" stroke-linecap="round" stroke-linejoin="round"/>
<path d="M157.747 227.448C156.399 228.945 154.003 228.939 152.131 228.353C149.211 227.454 146.702 225.532 143.826 224.521C140.294 223.273 136.107 223.323 133.361 220.777C131.951 219.467 130.678 216.54 130.497 213.002C132.159 214.707 134.072 216.149 136.169 217.276C138.291 218.387 140.537 219.698 142.64 220.846C144.8 222.125 147.181 222.985 149.66 223.379C150.393 223.46 151.135 223.376 151.832 223.136C153.598 222.368 153.323 221.183 153.367 220.571C154.7 221.591 155.979 222.681 157.198 223.835C158.777 225.794 157.747 227.448 157.747 227.448Z" fill="#063D7A"/>
<path d="M99.3597 236.159C99.3597 241.058 97.8871 246.143 94.4676 249.625C93.9049 250.294 93.1372 250.759 92.2836 250.948C91.726 250.967 91.1723 250.849 90.6715 250.603C90.1708 250.357 89.7385 249.991 89.4132 249.538C88.0404 247.865 87.6161 245.582 87.7097 243.416C87.8033 241.251 88.3337 239.136 88.6769 236.995C88.8141 236.103 88.9202 235.211 88.9889 234.312C89.146 232.17 89.1 230.018 88.8516 227.885C88.5833 225.582 88.0716 223.292 89.7626 221.533C91.0543 220.191 93.5066 218.176 95.3786 219.704C95.9608 220.279 96.3658 221.009 96.5455 221.807C96.8325 222.7 97.1196 223.592 97.3879 224.497C98.6092 228.267 99.2734 232.196 99.3597 236.159Z" fill="white"/>
<path d="M88.8522 227.885C89.206 230.916 89.1472 233.98 88.6775 236.995C88.3405 239.136 87.7976 241.251 87.7103 243.416C87.6229 245.582 88.041 247.865 89.4138 249.538C89.7391 249.991 90.1714 250.357 90.6721 250.603C91.1729 250.849 91.7266 250.967 92.2842 250.948C93.1379 250.759 93.9055 250.294 94.4682 249.625C97.8877 246.118 99.3541 241.058 99.3603 236.159C99.3666 231.261 98.0374 226.462 96.5211 221.807C96.3414 221.009 95.9365 220.279 95.3543 219.704C93.4823 218.176 91.0549 220.191 89.7383 221.533C88.0722 223.292 88.6088 225.582 88.8522 227.885Z" stroke="#063D7A" stroke-miterlimit="10"/>
<path d="M88.7519 224.715C88.7519 224.715 92.265 229.988 97.3693 224.715C97.3693 224.715 96.6642 209.939 98.2429 202.295C99.8216 194.651 105.806 170.733 97.3693 162.471C88.9329 154.209 81.3638 161.941 79.9598 168.624C78.5558 175.307 82.9488 194.295 85.5758 203.087C88.2028 211.879 88.7519 224.715 88.7519 224.715Z" fill="#063D7A"/>
<path d="M100.103 166.74C100.103 166.74 94.8489 152.956 83.6543 160.93" stroke="white" stroke-linecap="round" stroke-linejoin="round"/>
<path d="M99.3597 236.159C99.3597 241.057 97.8871 246.143 94.4676 249.625C93.9049 250.294 93.1372 250.759 92.2836 250.948C91.726 250.967 91.1723 250.849 90.6715 250.603C90.1708 250.357 89.7385 249.991 89.4132 249.537C88.0404 247.865 87.6161 245.581 87.7097 243.416C87.8033 241.251 88.3337 239.135 88.6769 236.995C88.8141 236.103 88.9202 235.21 88.9889 234.312C89.382 236.184 89.4568 240.321 89.513 241.088C89.5341 241.846 89.6644 242.596 89.8999 243.316C90.0206 243.675 90.2175 244.004 90.4771 244.279C90.7366 244.555 91.0527 244.771 91.4037 244.914C91.8616 245.037 92.3447 245.033 92.8002 244.901C93.2558 244.769 93.6663 244.514 93.9871 244.165C94.6204 243.458 95.0874 242.617 95.3536 241.706C97.0384 236.951 97.2631 231.816 97.1944 226.774C97.153 226.01 97.2096 225.245 97.3629 224.496C98.5927 228.266 99.2654 232.195 99.3597 236.159Z" fill="#063D7A"/>
<path d="M77.2953 66.2196C76.7104 67.5804 76.4869 69.0693 76.6465 70.5419C76.8061 72.0145 77.3434 73.4209 78.2064 74.6248C81.1891 78.8743 90.3681 82.8554 95.6784 80.5965C100.989 78.3376 110.548 78.4562 114.929 81.2205C119.309 83.9848 135.777 82.0879 135.777 72.0976C135.777 72.0976 138.035 74.0819 137.505 76.9898C137.505 76.9898 144.806 70.5314 136.176 60.9405C136.176 60.9405 138.622 56.5163 133.48 55.8611C128.338 55.2059 127.864 52.4167 127.371 49.4963C126.878 46.576 126.997 39.4499 120.607 39.5123C120.607 39.5123 110.286 29.2912 98.7671 34.3331C87.2481 39.3751 90.0312 46.8131 84.6148 45.7586C84.3923 46.4035 84.3923 47.1043 84.6148 47.7492C84.6148 47.7492 86.3433 51.7303 83.8224 53.5898C81.3014 55.4493 74.5997 58.7752 74.2627 67.9418C74.5559 67.3992 74.9957 66.9501 75.5319 66.6455C76.0681 66.341 76.6792 66.1934 77.2953 66.2196Z" fill="#063D7A"/>
<path d="M94.1436 76.1664L96.0904 75.1306V70.332C96.0904 70.332 99.0856 75.8295 102.493 76.4098C105.9 76.9901 109.85 71.0434 109.85 71.0434C109.85 71.0434 109.176 74.8685 109.85 75.8295C110.524 76.7904 116.158 79.7357 116.158 79.7357C116.158 79.7357 107.503 87.8789 105.55 94.0877C105.55 94.0877 104.926 88.2221 100.883 85.1333C97.7939 82.8818 95.4473 79.7596 94.1436 76.1664Z" fill="white"/>
<path d="M94.1436 76.167C91.8598 76.8425 89.459 77.0275 87.0986 76.7098C83.6978 76.0858 78.138 74.0766 74.107 76.9906C70.0759 79.9047 70.8247 91.6047 70.363 94.8807C69.9012 98.1567 69.5206 101.352 66.7188 104.172C63.917 106.993 62.0388 115.086 62.7751 118.075C62.7751 118.075 60.7097 120.877 62.2135 126.075C63.7174 131.272 64.9217 130.305 64.9217 130.305C64.9217 130.305 71.0868 130.549 74.2817 128.62C74.2817 128.62 77.4766 126.025 78.5436 123.884C79.6106 121.744 77.826 118.075 77.826 118.075L79.6044 119.947V125.157C79.6044 125.157 86.2812 130.031 93.1327 130.992C101.245 131.51 100.976 131.497 100.976 131.497L106.717 127.447C106.717 127.447 109.213 119.679 111.591 116.871C113.968 114.063 119.553 109.239 119.909 106.387C120.264 103.536 119.047 96.7964 119.047 96.7964C119.047 96.7964 123.122 101.058 124.071 105.882C125.019 110.705 137.799 100.952 137.799 100.952C137.799 100.952 134.023 93.8012 133.031 89.9511C132.039 86.1011 130.535 81.577 126.829 81.0279C123.122 80.4788 115.853 79.9484 115.853 79.9484C115.853 79.9484 107.834 87.4364 105.606 94.419C105.606 94.419 104.764 89.0027 100.858 85.1588C96.9516 81.315 94.2559 78.8626 94.1436 76.167Z" fill="#9DC1EB"/>
<path opacity="0.6" d="M116.158 79.7353C116.158 79.7353 107.515 88.0907 105.774 93.4071C105.774 93.4071 103.59 87.7911 100.277 84.5401C96.9635 81.2891 95.3286 78.7556 94.143 76.166L92.5581 76.7089C92.5581 76.7089 91.023 80.4155 90.7734 82.1502L95.26 84.5526L94.8918 92.7894C94.8918 92.7894 102.804 100.939 103.628 105.893L105.799 107.141C105.799 107.141 106.86 100.97 106.355 97.6129C106.355 97.6129 107.603 95.9406 110.673 94.7051C113.743 93.4695 115.833 92.3775 115.833 92.3775L114.96 87.086C117.212 86.5329 119.397 85.7335 121.474 84.7023L117.574 80.0473L116.158 79.7353Z" fill="white"/>
<path opacity="0.2" d="M129.88 102.761C129.88 102.761 127.384 95.6473 117.325 91.0234L117.862 93.145L115.322 92.8143C115.322 92.8143 115.946 103.635 112.264 107.166C108.583 110.698 94.4179 107.847 90.7363 111.016L97.1698 111.522C97.1698 111.522 91.6162 113.044 91.3229 114.954C91.0296 116.863 98.9606 115.871 102.137 117.363C102.137 117.363 102.879 126.723 100.078 131.415L100.982 131.478L106.867 126.929C106.867 126.929 110.424 117.213 113.107 114.954C115.79 112.695 119.858 108.932 119.796 105.9C119.734 102.867 119.234 96.5396 119.234 96.5396C119.234 96.5396 122.673 100.845 123.602 104.29C124.532 107.734 129.88 102.761 129.88 102.761Z" fill="#021429"/>
<path d="M129.524 115.241C129.524 115.241 131.633 124.101 139.727 123.883C139.727 123.883 140.675 124.314 141.736 121.88C142.797 119.446 143.883 116.938 142.872 112.164C141.861 107.391 138.529 102.105 138.529 102.105L128.838 107.559L129.524 115.241Z" fill="white"/>
<path d="M115.441 55.8795C115.441 55.8795 114.817 44.9283 106.705 42.3512C98.5928 39.7741 91.5354 46.0952 89.9629 54.7064C89.9629 54.7064 91.8349 63.8168 93.0018 65.9883C94.1686 68.1599 98.8861 75.5355 102.262 76.4154C105.638 77.2952 110.33 70.6558 112.202 67.7854C114.074 64.915 115.41 60.0853 115.684 55.8795" fill="white"/>
<path d="M115.441 55.8795C115.441 55.8795 114.817 44.9283 106.705 42.3512C98.5928 39.7741 91.5354 46.0952 89.9629 54.7064C89.9629 54.7064 91.8349 63.8168 93.0018 65.9883C94.1686 68.1599 98.8861 75.5355 102.262 76.4154C105.638 77.2952 110.33 70.6558 112.202 67.7854C114.074 64.915 115.41 60.0853 115.684 55.8795" stroke="#063D7A" stroke-miterlimit="10"/>
<path d="M102.118 67.8479C102.304 68.1646 102.536 68.4526 102.805 68.7028C103.753 69.5826 104.053 68.1849 104.053 67.4548C104.001 65.7069 104.303 63.9667 104.939 62.3379" stroke="#063D7A" stroke-linecap="round" stroke-linejoin="round"/>
<path d="M106.111 60.6975C106.866 59.5431 108.782 58.2015 110.623 59.4495" stroke="#063D7A" stroke-linecap="round" stroke-linejoin="round"/>
<path d="M96.3398 58.9382C98.3616 57.6902 100.758 58.439 101.151 60.0864" stroke="#063D7A" stroke-linecap="round" stroke-linejoin="round"/>
<path d="M107.952 63.7233C107.921 64.4534 107.628 65.0337 107.297 65.0212C106.966 65.0087 106.723 64.3972 106.748 63.6734C106.773 62.9496 107.072 62.3569 107.403 62.3693C107.734 62.3818 107.952 62.9808 107.952 63.7233Z" fill="#063D7A"/>
<path d="M99.5664 63.5183C99.5352 64.2484 99.2419 64.8287 98.9112 64.8163C98.5804 64.8038 98.3308 64.1923 98.362 63.4684C98.3932 62.7446 98.6865 62.1518 99.0172 62.1643C99.348 62.1767 99.5976 62.782 99.5664 63.5183Z" fill="#063D7A"/>
<path d="M114.224 63.6416C114.224 63.6416 114.891 64.0035 116.483 62.6183C118.074 61.233 119.428 58.5436 118.779 57.4205C118.13 56.2973 116.158 57.9259 116.158 57.9259L114.224 63.6416Z" fill="white" stroke="#063D7A" stroke-miterlimit="10"/>
<path d="M90.144 56.4046C90.144 56.4046 88.4529 55.3875 87.4732 56.1987C86.3875 57.091 87.9662 60.0924 88.5091 60.9473C89.1955 62.0268 90.5434 62.9441 91.6853 61.9582L90.144 56.4046Z" fill="white" stroke="#063D7A" stroke-miterlimit="10"/>
<path d="M98.792 68.9902C99.046 69.6429 99.4546 70.2241 99.9829 70.6839C100.511 71.1436 101.143 71.4682 101.825 71.6298" stroke="#063D7A" stroke-linecap="round" stroke-linejoin="round"/>
<path d="M110.23 70.543C109.25 72.7332 109.3 74.6614 109.881 76.9889" stroke="#063D7A" stroke-linecap="round" stroke-linejoin="round"/>
<path d="M95.8841 70.332C96.0653 71.722 96.1342 73.1243 96.09 74.5253C96.1543 75.4555 96.0225 76.3887 95.7031 77.2647" stroke="#063D7A" stroke-linecap="round" stroke-linejoin="round"/>
<path d="M89.3944 55.2682C89.3944 55.2682 98.6297 54.9 100.758 45.3153C100.758 45.3153 104.801 55.524 116.582 56.4039C116.582 56.4039 118.685 49.1467 117.499 44.4916C116.314 39.8366 110.511 35.8118 102.723 36.4545C94.9356 37.0972 88.5021 39.9239 89.3944 55.2682Z" fill="#063D7A"/>
<path d="M79.6104 119.934V125.145C79.6104 125.145 88.883 132.202 101.276 131.497L106.704 127.435C106.704 127.435 108.527 120.602 112.233 115.99C115.94 111.379 120.532 109.307 119.827 103.548C119.122 97.7883 118.929 95.8477 118.929 95.8477" stroke="#063D7A" stroke-linecap="round" stroke-linejoin="round"/>
<path d="M95.8843 75.5793C95.8843 75.5793 90.5803 77.6322 85.1577 76.4279C79.7352 75.2236 75.9912 74.9428 72.9336 78.0004C69.876 81.058 71.5483 97.3444 68.9088 100.995C66.2693 104.645 61.2523 111.983 62.7811 118.092" stroke="#063D7A" stroke-linecap="round" stroke-linejoin="round"/>
<path d="M78.5247 121.026C79.9786 123.665 76.9522 126.018 74.7807 128.046C72.6091 130.074 66.4315 130.542 64.5221 130.192C62.6127 129.843 61.3022 123.16 61.6579 121.013C62.0136 118.867 63.2117 116.839 65.0026 115.99C66.7935 115.141 68.1226 109.563 69.4392 108.802C70.7559 108.04 71.5421 110.518 71.5421 110.518" stroke="#063D7A" stroke-miterlimit="10"/>
<path d="M95.3477 111.303L107.491 112.782C108.639 112.919 109.893 113.119 110.648 113.992" stroke="#063D7A" stroke-linecap="round" stroke-linejoin="round"/>
<path d="M81.457 101.874C81.457 101.874 82.1933 95.6782 81.457 92.7891" stroke="#063D7A" stroke-linecap="round" stroke-linejoin="round"/>
<path d="M81.7822 99.6161C83.1017 98.2935 84.1788 96.7496 84.9646 95.0547" stroke="#063D7A" stroke-linecap="round" stroke-linejoin="round"/>
<path d="M126.791 101.888C125.979 101.756 125.215 101.417 124.573 100.903C123.93 100.389 123.432 99.7173 123.126 98.9539C122.819 98.1905 122.715 97.3609 122.824 96.5455C122.933 95.7301 123.25 94.9566 123.746 94.3001C124.37 93.4389 125.312 92.8087 125.917 91.9164C126.269 91.3852 126.494 90.7803 126.575 90.1483C126.657 89.5164 126.592 88.8742 126.385 88.2713C126.179 87.6685 125.837 87.121 125.386 86.6711C124.935 86.2212 124.387 85.8809 123.783 85.6763C124.982 85.5733 126.188 85.5858 127.384 85.7138C129.842 86.0695 131.334 87.7855 130.816 90.3688C130.298 92.9522 127.271 93.2954 125.474 94.7369C125.009 95.0661 124.632 95.5047 124.376 96.014C124.121 96.5232 123.994 97.0875 124.008 97.6572C124.052 98.5465 124.334 99.4078 124.823 100.152C125.312 100.896 125.992 101.495 126.791 101.888Z" fill="white" stroke="#063D7A" stroke-miterlimit="10"/>
<path d="M109.562 75.5801C111.871 77.7631 114.747 79.2529 117.862 79.8794C122.729 80.7031 128.145 80.466 129.955 82.6063C131.764 84.7466 134.466 96.1783 137.986 101.283C141.505 106.387 146.541 117.07 140.401 123.628C140.401 123.628 133.761 125.8 129.973 116.764" stroke="#063D7A" stroke-linecap="round" stroke-linejoin="round"/>
<path d="M117.861 94.5625C117.861 94.5625 121.718 99.0428 123.34 103.548" stroke="#063D7A" stroke-linecap="round" stroke-linejoin="round"/>
<path d="M126.049 115.99C127.753 114.895 129.782 114.417 131.796 114.636C135.116 115.029 134.81 115.959 134.229 116.196C133.649 116.433 124.776 118.461 124.483 117.937C124.189 117.413 126.049 115.99 126.049 115.99Z" fill="white" stroke="#063D7A" stroke-miterlimit="10"/>
<path d="M94.1436 76.166C94.4244 79.1051 96.8704 81.2828 99.0232 83.3108C100.809 84.8984 102.354 86.7377 103.61 88.7708C106.861 94.4243 106.143 101.432 105.326 107.903" stroke="#063D7A" stroke-linecap="round" stroke-linejoin="round"/>
<path d="M92.9767 76.1348C91.931 77.8672 91.1921 79.767 90.7927 81.7508C90.7488 81.8867 90.7488 82.0329 90.7927 82.1688C90.8675 82.2845 90.9766 82.374 91.1047 82.4247L95.2793 84.5712C94.8926 86.5686 94.7356 88.6035 94.8113 90.6365C94.8082 91.0047 94.863 91.3711 94.9735 91.7223C95.1642 92.1668 95.4373 92.5712 95.7785 92.9141C99.1668 96.7767 102.823 100.851 103.622 105.925" stroke="#063D7A" stroke-linecap="round" stroke-linejoin="round"/>
<path d="M116.557 79.5039C115.687 80.006 114.898 80.6372 114.217 81.3759C110.594 85.0207 107.725 89.3443 105.774 94.0993" stroke="#063D7A" stroke-linecap="round" stroke-linejoin="round"/>
<path d="M117.082 79.5547C118.592 81.2187 120.048 82.9451 121.45 84.7339C119.508 86.0531 117.27 86.8719 114.935 87.1176C115.228 88.715 115.515 90.3125 115.809 91.9037C115.855 92.0689 115.855 92.2438 115.809 92.4091C115.701 92.5989 115.528 92.7431 115.322 92.8147C112.233 94.3185 108.502 94.9737 106.33 97.6444" stroke="#063D7A" stroke-linecap="round" stroke-linejoin="round"/>
<path d="M100.758 45.3164C100.758 45.3164 101.301 57.6654 116.158 57.9275" stroke="#063D7A" stroke-linecap="round" stroke-linejoin="round"/>
<path d="M133.474 101.875C134.428 104.33 134.984 106.92 135.121 109.55C135.215 113.438 131.633 115.528 129.087 115.99C126.541 116.452 123.434 116.308 121.362 113.7C119.291 111.091 118.561 105.532 118.561 105.532L133.474 101.875Z" fill="white" stroke="#063D7A" stroke-miterlimit="10"/>
<path d="M136.844 100.977C136.349 101.002 135.864 101.13 135.421 101.351C133.121 102.32 130.913 103.496 128.825 104.864C128.638 104.989 128.426 105.145 128.407 105.37C128.407 105.719 128.8 105.912 129.144 105.994C131.147 106.368 133.206 105.925 135.19 105.482C135.77 105.38 136.334 105.204 136.869 104.958C138.529 104.109 139.633 101.014 136.844 100.977Z" fill="white" stroke="#063D7A" stroke-miterlimit="10"/>
<path d="M137.973 105.532C136.296 105.729 134.638 106.067 133.018 106.543C132.504 106.641 132.014 106.84 131.577 107.129C131.497 107.176 131.43 107.241 131.381 107.319C131.332 107.398 131.303 107.487 131.296 107.579C131.296 107.803 131.521 107.947 131.72 108.041C132.437 108.323 133.192 108.497 133.96 108.558C135.832 108.796 138.091 109.095 139.707 107.897C141.486 106.599 139.439 105.426 137.973 105.532Z" fill="white" stroke="#063D7A" stroke-miterlimit="10"/>
<path d="M133.094 109.625C132.539 109.621 131.993 109.761 131.509 110.03C131.358 110.113 131.237 110.239 131.159 110.392C131.106 110.556 131.107 110.732 131.162 110.896C131.217 111.059 131.324 111.199 131.465 111.297C131.751 111.485 132.075 111.606 132.414 111.653L135.789 112.383C136.488 112.533 137.331 112.645 137.768 111.946C137.914 111.702 137.992 111.423 137.992 111.138C137.992 110.853 137.914 110.574 137.768 110.33C136.938 109.313 134.229 109.55 133.094 109.625Z" fill="white" stroke="#063D7A" stroke-miterlimit="10"/>
<path d="M65.5517 115.516C64.5034 117.531 64.3911 119.884 64.3037 122.143" stroke="#063D7A" stroke-linecap="round" stroke-linejoin="round"/>
<path d="M66.2939 116.857C66.3108 119.189 67.0116 121.465 68.3093 123.403C69.607 125.341 71.4447 126.855 73.5947 127.759" stroke="#063D7A" stroke-linecap="round" stroke-linejoin="round"/>
<path d="M108.801 114.749C105.457 114.506 102.062 114.268 98.7861 114.961" stroke="#063D7A" stroke-linecap="round" stroke-linejoin="round"/>
<path d="M100.858 85.1445L88.6396 85.6063L91.0545 107.902L102.449 107.172L100.858 85.1445Z" fill="white" stroke="#063D7A" stroke-miterlimit="10"/>
<path d="M100.969 91.5285L101.65 92.7079L98.1677 99.0727C100.04 98.6234 103.079 95.2787 103.584 95.9527C104.089 96.6266 95.472 105.119 93.3629 105.65C91.8531 105.951 90.2987 105.951 88.789 105.65C87.1104 107.615 77.7317 123.003 77.7317 123.003C77.7317 123.003 68.1533 121.967 70.044 111.459C70.044 111.459 81.8501 101.837 85.3133 98.7607C85.3133 98.7607 86.6986 93.3755 88.8451 92.7952L89.6064 94.6672C89.6064 94.6672 101.113 89.4069 101.462 89.7938C101.812 90.1807 101.462 91.073 101.462 91.073C101.462 91.073 95.0352 96.976 93.4939 97.313" fill="white"/>
<path d="M100.969 91.5285L101.65 92.7079L98.1677 99.0727C100.04 98.6234 103.079 95.2787 103.584 95.9527C104.089 96.6266 95.472 105.119 93.3629 105.65C91.8531 105.951 90.2987 105.951 88.789 105.65C87.1104 107.615 77.7317 123.003 77.7317 123.003C77.7317 123.003 68.1533 121.967 70.044 111.459C70.044 111.459 81.8501 101.837 85.3133 98.7607C85.3133 98.7607 86.6986 93.2071 88.8451 92.7952L89.6064 94.6672C89.6064 94.6672 101.113 89.4069 101.462 89.7938C101.812 90.1807 101.462 91.073 101.462 91.073C101.462 91.073 95.0352 96.976 93.4939 97.313" stroke="#063D7A" stroke-miterlimit="10"/>
<path opacity="0.2" d="M101.238 42.9629C102.732 44.656 104.406 46.1813 106.23 47.5118C107.054 48.0519 107.908 48.5436 108.789 48.9844C111.673 50.4521 114.682 51.6591 117.781 52.5911" stroke="white" stroke-width="0.75" stroke-linecap="round" stroke-linejoin="round"/>
<path opacity="0.2" d="M101.868 40.4609C106.224 43.1146 110.946 45.114 115.883 46.3952" stroke="white" stroke-width="0.75" stroke-linecap="round" stroke-linejoin="round"/>
<path d="M96.3398 70.9551C96.3398 70.9551 98.0995 78.8362 102.118 79.5538C106.137 80.2714 109.338 71.7538 109.338 71.7538C109.338 71.7538 105.35 76.4401 102.836 76.4026C100.321 76.3652 96.3398 70.9551 96.3398 70.9551Z" fill="#063D7A"/>
<path d="M91.435 89.1884C91.952 89.1884 92.371 88.7694 92.371 88.2524C92.371 87.7355 91.952 87.3164 91.435 87.3164C90.9181 87.3164 90.499 87.7355 90.499 88.2524C90.499 88.7694 90.9181 89.1884 91.435 89.1884Z" fill="white" stroke="#063D7A" stroke-miterlimit="10"/>
</svg>
